# xmcd CD database file
#
# Track frame offsets:
#	182
#	19927
#	34687
#	51602
#	71060
#	88767
#	123085
#	139020
#	163707
#	196572
#	221842
#	244375
#	260170
#	283542
#	304447
#	319210
#	330172
#	339732
#
# Disc length: 4692 seconds
#
# Revision: 0
# Processed by: cddbd v1.5.2PL0 Copyright (c) Steve Scherf et al.
# Submitted via: CDex 1.51
#
DISCID=18125212
DTITLE=Various Artist - The Best of Contemporary Instrumental Music Vol. 2
DYEAR=1994
DGENRE=New Age
TTITLE0=Kai Simcha - Lullaby
TTITLE1=Deborah HensonConant - Nataliana
TTITLE2=Ulli Bögershausen - I don't know what it happening
TTITLE3=Thomas Kessler - My Father's Song
TTITLE4=Brother to Brother - Ikarus
TTITLE5=George Kochbek - Monday
TTITLE6=Werner Lämmerhirt - Samba an einem ruhigen Sonntag
TTITLE7=Tol Brönner - Caucht in Love
TTITLE8=Doug Sides Ensemble - Sumbio
TTITLE9=Michael Gerbracht's Nighttime Band - Soing in my Heart
TTITLE10=Spillwark - Dospatsko
TTITLE11=Werner Lämmerhirt - Sweet Lady Abigail
TTITLE12=Undissociated - Space 4 You
TTITLE13=Brother to Brother - Carlos I.
TTITLE14=Thomas Kessler - When 2 Hearts Collide
TTITLE15=George Kochbek - Walzer for Lisa
TTITLE16=Ulli Bögershausen - Chrildren's Song No. 4
TTITLE17=Mark Joggerst - Never Again
EXTD=YEAR: 1994
EXTT0=
EXTT1=
EXTT2=
EXTT3=
EXTT4=
EXTT5=
EXTT6=
EXTT7=
EXTT8=
EXTT9=
EXTT10=
EXTT11=
EXTT12=
EXTT13=
EXTT14=
EXTT15=
EXTT16=
EXTT17=
PLAYORDER=
